<svg xmlns="http://www.w3.org/2000/svg" xmlns:xlink="http://www.w3.org/1999/xlink" viewBox="0 0 173.95 91.95"><defs><style>.cls-1{isolation:isolate;}.cls-2{fill:#f9f8f2;}.cls-3{opacity:0.63;mix-blend-mode:hard-light;}.cls-4{fill:#666;}.cls-5{opacity:0.17;}.cls-6{fill:url(#Orchid);}.cls-7{fill:#4d4d4f;}.cls-14,.cls-15,.cls-8{fill:none;stroke-miterlimit:10;}.cls-8{stroke:#4d4d4d;}.cls-14,.cls-8{stroke-width:0.25px;}.cls-9{fill:url(#linear-gradient);}.cls-10{opacity:0.32;}.cls-11{fill:gray;}.cls-12{fill:#f3f0eb;}.cls-13{opacity:0.36;}.cls-14,.cls-15{stroke:#666;stroke-dasharray:5;}.cls-15{stroke-width:0.5px;}.cls-16{fill:url(#Orchid-2);}</style><linearGradient id="Orchid" x1="45.24" y1="20.52" x2="57.53" y2="20.52" gradientUnits="userSpaceOnUse"><stop offset="0" stop-color="#ff7bac"/><stop offset="0.22" stop-color="#ff7bac" stop-opacity="0.76"/><stop offset="0.6" stop-color="#ff7bac" stop-opacity="0.36"/><stop offset="0.87" stop-color="#ff7bac" stop-opacity="0.1"/><stop offset="1" stop-color="#ff7bac" stop-opacity="0"/></linearGradient><linearGradient id="linear-gradient" x1="133.87" y1="12.97" x2="133.87" y2="91.72" gradientUnits="userSpaceOnUse"><stop offset="0" stop-color="#fdfcf9"/><stop offset="1" stop-color="#e2e3de"/></linearGradient><linearGradient id="Orchid-2" x1="146.67" y1="31.94" x2="155.51" y2="31.94" gradientTransform="matrix(0.24, 1.12, -0.97, 0.27, 110.75, -150.52)" xlink:href="#Orchid"/></defs><title>Asset 2</title><g class="cls-1"><g id="Layer_2" data-name="Layer 2"><g id="Layer_4" data-name="Layer 4"><g id="bunny"><path class="cls-2" d="M32.29,20.51a7.91,7.91,0,0,0,3-3c1-1.84.54-3,1-5,.4-1.72,1.94-3.5,5-7,3.83-4.37,5-4.84,6-5,.29,0,2.67-.39,4,1,1.08,1.14.37,2.27,1,4,1.23,3.36,6.17,5.22,10,5,1.93-.11,1.92-.65,4-1,1-.17,4-.52,12,3a57.47,57.47,0,0,1,11,6c3.74,2.65,6.88,4.87,9,8,4.56,6.73,2.72,15.14,1,23-2.54,11.6-7.86,18.93-13,26-.75,1-7.36,10-14,12-1.81.55-4,1-4,1a60.68,60.68,0,0,1-8,1c-8.39.72-8.79.69-11,1-4.14.59-3.7.83-6,1-3.56.27-4.42-.32-11-1-5.33-.55-6.12-.31-10-1-3.4-.61-5.13-.93-7-2a14.84,14.84,0,0,1-6-7"/><g class="cls-3"><path class="cls-4" d="M32,20.08a8.17,8.17,0,0,0,1.84-1.46l.73.68a9.53,9.53,0,0,1-2.06,1.64Z"/><path class="cls-4" d="M35.55,14.47A10.58,10.58,0,0,1,36,11.92a9,9,0,0,1,1.26-2.26l.77.55a8.25,8.25,0,0,0-1.12,2,8.93,8.93,0,0,0-.35,2.3Z"/><path class="cls-4" d="M40.4,5.84c.53-.63,1.11-1.22,1.67-1.83L43.78,2.2l.62.66L42.74,4.64c-.55.59-1.12,1.17-1.65,1.8Z"/><path class="cls-4" d="M48.37,0A5,5,0,0,1,51,.68a3.18,3.18,0,0,1,1,1A2.93,2.93,0,0,1,52.37,3l-.85.08a2.05,2.05,0,0,0-.29-1,2.29,2.29,0,0,0-.74-.71A4.12,4.12,0,0,0,48.36.88Z"/><path class="cls-4" d="M53.92,7.25A10,10,0,0,0,58,9.55l-.24.78a10.65,10.65,0,0,1-4.42-2.49Z"/><path class="cls-4" d="M62.69,10.08a4.58,4.58,0,0,0,1.11-.24c.36-.13.76-.3,1.17-.42a9.05,9.05,0,0,1,1.25-.29L67.51,9V9.8l-1.16.1a8.72,8.72,0,0,0-1.15.26c-.37.12-.72.28-1.14.42a5.78,5.78,0,0,1-1.28.29Z"/><polygon class="cls-4" points="72.45 9.91 77.11 11.61 76.83 12.28 72.24 10.63 72.45 9.91"/><polygon class="cls-4" points="81.62 13.63 85.99 15.96 85.64 16.55 81.31 14.27 81.62 13.63"/><polygon class="cls-4" points="90.12 18.69 94.08 21.65 93.67 22.15 89.73 19.23 90.12 18.69"/><path class="cls-4" d="M97.65,25.13a20.86,20.86,0,0,1,1.43,2.05,15.67,15.67,0,0,1,1.09,2.26l-.55.22a15.61,15.61,0,0,0-1.07-2.17,21,21,0,0,0-1.38-2Z"/><path class="cls-4" d="M101.32,34.29a27.51,27.51,0,0,1,0,5l-.56,0a26.4,26.4,0,0,0,0-4.87Z"/><polygon class="cls-4" points="100.67 44.16 99.67 49 99.17 48.89 100.14 44.07 100.67 44.16"/><polygon class="cls-4" points="98.44 53.78 96.78 58.44 96.35 58.27 97.97 53.64 98.44 53.78"/><polygon class="cls-4" points="94.7 62.93 92.25 67.22 91.89 67 94.31 62.73 94.7 62.93"/><polygon class="cls-4" points="89.53 71.34 86.65 75.34 86.34 75.12 89.2 71.11 89.53 71.34"/><polygon class="cls-4" points="83.56 79.19 80.11 82.73 79.88 82.48 83.29 78.95 83.56 79.19"/><path class="cls-4" d="M76.22,85.78A18.44,18.44,0,0,1,74.05,87a13.06,13.06,0,0,1-2.34.84l-.08-.28a13.57,13.57,0,0,0,2.29-.83,19.37,19.37,0,0,0,2.13-1.2Z"/><polygon class="cls-4" points="66.9 88.91 62 89.49 61.98 89.24 66.85 88.65 66.9 88.91"/><polygon class="cls-4" points="57.09 89.89 52.19 90.29 52.17 90.08 57.08 89.67 57.09 89.89"/><path class="cls-4" d="M47.31,90.92c-.81.13-1.6.32-2.41.48a17.07,17.07,0,0,1-2.46.24v-.16a18,18,0,0,0,2.44-.25c.79-.16,1.6-.36,2.41-.5Z"/><polygon class="cls-4" points="37.53 91.24 32.65 90.61 32.66 90.49 37.55 91.1 37.53 91.24"/><path class="cls-4" d="M27.75,90.18a44.74,44.74,0,0,1-4.9-.53v-.08a42.21,42.21,0,0,0,4.89.51Z"/><path class="cls-4" d="M18,88.66a11.9,11.9,0,0,1-2.3-.89c-.73-.38-1.37-.9-2.06-1.35l0,0c.69.44,1.33,1,2.06,1.33a11.86,11.86,0,0,0,2.3.88Z"/><polygon class="cls-4" points="10.45 82.73 9.29 80.51 10.46 82.72 10.45 82.73"/></g><path class="cls-2" d="M49.29,32.51a8.1,8.1,0,0,0,4-1c2.19-1.22,3.16-3.21,4-5,1.15-2.43.69-2.82,2-7,1.13-3.57,1.57-3.62,2-6a15.76,15.76,0,0,0,0-6c-.33-1.63-.67-3.3-2-4-.31-.16-1.14-.51-3,0-2.36.65-3.58,1.93-6,4-4.65,4-4.8,3.3-6,5-1.56,2.22-1,3-3,6-1.45,2.21-2.39,3.64-4,4-2.13.49-3-1.46-6-2-2.41-.42-4.27.38-8,2a31.87,31.87,0,0,0-8,5,33.39,33.39,0,0,0-6,7,48.31,48.31,0,0,0-6,13,37.56,37.56,0,0,0-2,12,24.57,24.57,0,0,1,0,5c-.47,3.45-1.68,4.77-1,7,.1.33.07.1,2,3,1.61,2.41,2.4,3.71,4,5,1.16.93,1.68,1,2,1,1.18,0,2.18-1.1,3-2,1.1-1.2,1.4-2.05,2-2s.82.69,1,1c.56,1,1.54,1.66,6,3a45.29,45.29,0,0,0,8,2,29.67,29.67,0,0,0,12-1c7.55-2.54,13.24-11.33,15-22"/><g class="cls-5"><polygon class="cls-4" points="49.29 32.51 50.29 32.46 50.29 32.46 49.29 32.51"/><path class="cls-4" d="M52.24,32l.92-.42a2.34,2.34,0,0,0,.43-.26L54,31h0l-.42.27a2.82,2.82,0,0,1-.44.26l-.91.42Z"/><path class="cls-4" d="M55.47,29.65A11.59,11.59,0,0,0,56.56,28h0a11.65,11.65,0,0,1-1.1,1.69Z"/><path class="cls-4" d="M57.44,26.15a9.91,9.91,0,0,0,.65-1.9h0a11.51,11.51,0,0,1-.65,1.9Z"/><polygon class="cls-4" points="58.51 22.28 59.02 20.34 59.06 20.35 58.54 22.29 58.51 22.28"/><polygon class="cls-4" points="59.63 18.41 60.34 16.52 60.38 16.54 59.67 18.43 59.63 18.41"/><path class="cls-4" d="M61,14.64l.21-1c.07-.33.11-.66.17-1h.06c-.06.33-.1.66-.17,1l-.22,1Z"/><polygon class="cls-4" points="61.55 10.67 61.44 8.66 61.51 8.65 61.61 10.67 61.55 10.67"/><path class="cls-4" d="M61.08,6.69a7.93,7.93,0,0,0-.63-1.91l.07,0a7.59,7.59,0,0,1,.63,1.92Z"/><path class="cls-4" d="M59.05,3.45a3.87,3.87,0,0,0-2-.08V3.29a3.92,3.92,0,0,1,2,.08Z"/><path class="cls-4" d="M55.17,4a9.27,9.27,0,0,0-1.73,1l-.06-.08a9.2,9.2,0,0,1,1.75-1Z"/><polygon class="cls-4" points="51.87 6.21 50.35 7.53 50.28 7.45 51.81 6.13 51.87 6.21"/><polygon class="cls-4" points="48.81 8.83 47.22 10.07 47.15 9.97 48.74 8.74 48.81 8.83"/><path class="cls-4" d="M45.58,11.24a5.48,5.48,0,0,0-1.34,1.46l-.11-.07a5.56,5.56,0,0,1,1.38-1.48Z"/><polygon class="cls-4" points="43.3 14.46 42.58 16.34 42.46 16.29 43.18 14.42 43.3 14.46"/><path class="cls-4" d="M41.63,18.12c-.36.57-.75,1.12-1.12,1.69l-.11-.09c.37-.55.75-1.11,1.11-1.67Z"/><path class="cls-4" d="M39.26,21.4a3.93,3.93,0,0,1-1.7,1.12l0-.15a3.87,3.87,0,0,0,1.64-1.07Z"/><path class="cls-4" d="M35.54,22.44a18.92,18.92,0,0,1-1.78-1l.08-.14a18.77,18.77,0,0,0,1.76.95Z"/><path class="cls-4" d="M31.92,20.74a4.57,4.57,0,0,0-1-.17l-1-.08v-.18l1,.09a6.52,6.52,0,0,1,1,.17Z"/><polygon class="cls-4" points="27.99 20.78 26.09 21.43 26.03 21.26 27.95 20.61 27.99 20.78"/><path class="cls-4" d="M24.24,22.2c-.61.26-1.23.54-1.83.82l-.08-.17c.61-.29,1.22-.56,1.84-.82Z"/><polygon class="cls-4" points="20.62 23.93 18.89 24.96 18.79 24.8 20.52 23.76 20.62 23.93"/><polygon class="cls-4" points="17.23 26.1 15.66 27.34 15.52 27.18 17.11 25.93 17.23 26.1"/><polygon class="cls-4" points="14.17 28.68 12.77 30.13 12.61 29.98 14.02 28.53 14.17 28.68"/><polygon class="cls-4" points="11.48 31.66 10.28 33.27 10.1 33.14 11.3 31.52 11.48 31.66"/><polygon class="cls-4" points="9.15 34.93 8.1 36.64 7.89 36.52 8.96 34.8 9.15 34.93"/><polygon class="cls-4" points="7.13 38.39 6.23 40.19 6.01 40.08 6.91 38.28 7.13 38.39"/><polygon class="cls-4" points="5.41 42.02 4.65 43.88 4.42 43.79 5.18 41.92 5.41 42.02"/><polygon class="cls-4" points="3.97 45.77 3.37 47.68 3.14 47.61 3.74 45.69 3.97 45.77"/><polygon class="cls-4" points="2.81 49.61 2.3 51.55 2.08 51.5 2.58 49.55 2.81 49.61"/><polygon class="cls-4" points="1.89 53.52 1.59 55.5 1.38 55.48 1.67 53.48 1.89 53.52"/><polygon class="cls-4" points="1.42 57.5 1.4 59.51 1.19 59.51 1.21 57.49 1.42 57.5"/><polygon class="cls-4" points="1.49 61.52 1.49 63.55 1.3 63.53 1.29 61.53 1.49 61.52"/><polygon class="cls-4" points="1.22 65.55 0.72 67.52 0.55 67.47 1.03 65.52 1.22 65.55"/><path class="cls-4" d="M.24,69.46a4.32,4.32,0,0,0,.12,2l-.17,0a4.5,4.5,0,0,1-.13-2Z"/><polygon class="cls-4" points="1.43 73.08 2.56 74.76 2.42 74.85 1.29 73.18 1.43 73.08"/><polygon class="cls-4" points="3.68 76.43 4.88 78.04 4.76 78.14 3.54 76.52 3.68 76.43"/><path class="cls-4" d="M6.31,79.43a4.63,4.63,0,0,0,1.7,1l0,.15a4.65,4.65,0,0,1-1.77-1Z"/><path class="cls-4" d="M9.82,79.83a10.5,10.5,0,0,0,1.44-1.39l.1.1A12.1,12.1,0,0,1,9.91,80Z"/><path class="cls-4" d="M12.53,76.88a1.51,1.51,0,0,1,.4-.35.64.64,0,0,1,.54,0,1.57,1.57,0,0,1,.73.73l-.11.07a1.43,1.43,0,0,0-.66-.67c-.31-.12-.59.1-.8.36Z"/><path class="cls-4" d="M15.54,78.63a11.9,11.9,0,0,0,1.81.84l0,.11a11.21,11.21,0,0,1-1.83-.84Z"/><polygon class="cls-4" points="19.25 80.13 21.18 80.72 21.15 80.83 19.22 80.24 19.25 80.13"/><polygon class="cls-4" points="23.11 81.3 25.05 81.84 25.03 81.93 23.08 81.4 23.11 81.3"/><path class="cls-4" d="M27,82.27c.66.1,1.32.21,2,.27v.09c-.67-.06-1.34-.16-2-.26Z"/><polygon class="cls-4" points="31.02 82.66 33.03 82.65 33.03 82.73 31.02 82.75 31.02 82.66"/><polygon class="cls-4" points="35.04 82.52 37.03 82.26 37.04 82.33 35.04 82.6 35.04 82.52"/><path class="cls-4" d="M39,81.85c.64-.19,1.29-.35,1.91-.6l0,.06c-.63.25-1.28.42-1.92.61Z"/><polygon class="cls-4" points="42.74 80.41 44.44 79.34 44.47 79.39 42.76 80.46 42.74 80.41"/><polygon class="cls-4" points="46.01 78.09 47.45 76.69 47.48 76.73 46.04 78.13 46.01 78.09"/><polygon class="cls-4" points="48.76 75.17 49.95 73.55 49.98 73.57 48.79 75.2 48.76 75.17"/><polygon class="cls-4" points="51.01 71.84 51.96 70.07 51.98 70.08 51.04 71.86 51.01 71.84"/><polygon class="cls-4" points="52.8 68.24 53.53 66.36 53.54 66.37 52.82 68.25 52.8 68.24"/><polygon class="cls-4" points="54.15 64.45 54.68 62.51 54.69 62.51 54.16 64.45 54.15 64.45"/><polygon class="cls-4" points="55.12 60.5 55.29 59.51 55.12 60.5 55.12 60.5"/></g><path class="cls-6" d="M45.29,26.51c-.4-4.73,1.57-8.11,5-14,1-1.7,1.77-2.84,3-3,1.62-.21,3.36,1.36,4,3,.42,1.05.39,2.15-1,6-2.19,6.1-4.12,8.93-6,11-1.69,1.88-2.45,2.13-3,2C45.68,31.12,45.36,27.32,45.29,26.51Z"/><path class="cls-7" d="M26.76,60.2a4.71,4.71,0,0,1,2.66-3.52c1-.3,2.06-.3,3.07-.53a3.1,3.1,0,0,0,2.75-2.53c.14-.62-.82-.89-1-.26-.66,2.81-4.44,1.51-6.31,2.89a6.19,6.19,0,0,0-2.2,4c0,.64,1,.64,1,0Z"/><path class="cls-7" d="M27,59.65c.85-2.19,3.47-1.91,5.37-2.46a3.56,3.56,0,0,0,2.38-2.43c.24-.6-.73-.86-1-.27-1,2.39-3.56,1.81-5.56,2.59A3.77,3.77,0,0,0,26,59.39c-.23.6.74.86,1,.26Z"/><path class="cls-7" d="M29,57.47a19.25,19.25,0,0,1,2.89-.68c.64-.1.37-1.06-.26-1a18.94,18.94,0,0,0-2.89.67c-.62.19-.35,1.16.26,1Z"/><line class="cls-8" x1="10.79" y1="74.01" x2="12.79" y2="76.01"/><line class="cls-8" x1="15.79" y1="73.01" x2="12.79" y2="76.01"/><path class="cls-9" d="M93.79,29a11.42,11.42,0,0,0,5-2c1.68-1.22,1.76-2.05,4-5a37.6,37.6,0,0,1,7-7c2-1.68,3-2.18,4-2,1.29.24,2.06,1.47,3,3,2.14,3.49,2,5.83,3,6s1.38-2.51,4-4c1.71-1,2.43-.3,7-1,3.25-.5,3.23-.89,5-1a15.48,15.48,0,0,1,8,2c5.78,2.82,5.17,5.43,10,7,2.76.9,4.14.43,6,2,1.1.93,1.23,1.61,3,5,1,1.87,2.32,4.44,4,7,2.58,4,3.28,3.8,4,6s.17,2.91,1,6,1.55,3.08,2,5c.61,2.59-.58,5.43-3,11a72.51,72.51,0,0,1-4,8c-2.39,4.1-3.64,6.19-6,8a18.57,18.57,0,0,1-6,3c-2.41.76-4,.81-8,1-7.9.38-11.9.58-14,1-3.45.69-3.66,1.19-8,2-1.07.2-2.72.48-8,1-11.55,1.13-13.38.73-15,0a13.56,13.56,0,0,1-5-4"/><g class="cls-10"><path class="cls-11" d="M93.79,29a11.56,11.56,0,0,0,4.64-1.76h0A11.44,11.44,0,0,1,93.79,29Z"/><path class="cls-11" d="M101.68,23.52c.51-.67.95-1.38,1.5-2l1.6-1.93,0,0-1.59,1.92c-.55.63-1,1.34-1.51,2Z"/><path class="cls-11" d="M108.4,16.14l1.93-1.6a10,10,0,0,1,2.09-1.37l0,.05a10.53,10.53,0,0,0-2.08,1.37l-1.93,1.58Z"/><path class="cls-11" d="M116.42,15.34a22.26,22.26,0,0,1,1.24,2.18,19.41,19.41,0,0,1,.94,2.32l-.07,0a21.08,21.08,0,0,0-.94-2.31,22,22,0,0,0-1.23-2.17Z"/><path class="cls-11" d="M121.36,20.35A7.84,7.84,0,0,1,123,18.47a4.82,4.82,0,0,1,2.27-1l0,.1a4.69,4.69,0,0,0-2.23,1,7.65,7.65,0,0,0-1.64,1.85Z"/><path class="cls-11" d="M130.28,17c.82-.12,1.64-.26,2.45-.44s1.6-.48,2.44-.59l0,.13c-.82.1-1.61.41-2.43.58s-1.64.32-2.47.43Z"/><path class="cls-11" d="M140.15,16.45a25.59,25.59,0,0,1,4.6,2l-.07.14a25,25,0,0,0-4.57-2Z"/><path class="cls-11" d="M148.75,21.45a24.36,24.36,0,0,0,1.79,1.73,8.88,8.88,0,0,0,2.1,1.3l-.07.16a9.24,9.24,0,0,1-2.14-1.33,24.83,24.83,0,0,1-1.8-1.75Z"/><path class="cls-11" d="M157.45,25.73a5.46,5.46,0,0,1,2.27,1.1,5.11,5.11,0,0,1,.9.9,9.37,9.37,0,0,1,.65,1.08l-.17.1a5.36,5.36,0,0,0-3.69-3Z"/><polygon class="cls-11" points="163.56 33.25 166.03 37.59 165.84 37.71 163.38 33.35 163.56 33.25"/><path class="cls-11" d="M168.86,41.7a16.74,16.74,0,0,1,1.51,2,9.45,9.45,0,0,1,.84,2.39l-.24,0a9.39,9.39,0,0,0-.81-2.32,17.38,17.38,0,0,0-1.48-2Z"/><path class="cls-11" d="M171.92,51a13.51,13.51,0,0,0,.85,2.33,12.55,12.55,0,0,1,1,2.29l-.22.06a12.67,12.67,0,0,0-1-2.25,12.37,12.37,0,0,1-.87-2.36Z"/><polygon class="cls-11" points="173.47 60.62 171.65 65.29 171.46 65.21 173.26 60.56 173.47 60.62"/><polygon class="cls-11" points="169.61 69.86 167.3 74.31 167.14 74.22 169.43 69.78 169.61 69.86"/><path class="cls-11" d="M164.73,78.61a17.6,17.6,0,0,1-3.17,3.87l-.11-.12a17.46,17.46,0,0,0,3.14-3.85Z"/><path class="cls-11" d="M157.32,85.15,155,86c-.39.14-.81.21-1.21.32l-1.22.29,0-.13,1.2-.3c.4-.11.81-.18,1.21-.31l2.33-.87Z"/><polygon class="cls-11" points="147.55 87.04 142.55 87.28 142.55 87.16 147.54 86.91 147.55 87.04"/><path class="cls-11" d="M137.56,87.55a39.19,39.19,0,0,0-5,.55l0-.09a37.8,37.8,0,0,1,5-.56Z"/><path class="cls-11" d="M127.77,89.39l-2.44.54c-.81.19-1.64.28-2.46.43v-.07c.82-.14,1.65-.24,2.46-.43l2.43-.54Z"/><polygon class="cls-11" points="117.9 90.93 112.91 91.39 112.91 91.34 117.89 90.88 117.9 90.93"/><path class="cls-11" d="M107.92,91.7c-.83,0-1.67,0-2.5,0a12.17,12.17,0,0,1-2.48-.29v0a11.5,11.5,0,0,0,2.48.28c.83,0,1.67,0,2.5,0Z"/><path class="cls-11" d="M98.63,89A15.44,15.44,0,0,1,96.79,87,15.35,15.35,0,0,0,98.63,89Z"/></g><path class="cls-12" d="M103.29,30.51l15-16c.16-.25,1.38-2.1,3-2s2.58,2.11,3,3c1.64,3.46.84,7.34-1,13a120.61,120.61,0,0,1-6,15,20.92,20.92,0,0,1,3,3,16.54,16.54,0,0,1,4,8c.43,3-.45,5.2-2,9a48.36,48.36,0,0,1-5,9c-3.86,5.83-7.54,11.28-13,15a23.34,23.34,0,0,1-6,3,25,25,0,0,1-5,1c-3.58.45-5.37.68-7,0s-2.06-1.7-4-2c-1.22-.19-1.33.16-3,0a17.66,17.66,0,0,1-4-1,26.48,26.48,0,0,1-3-1,7.7,7.7,0,0,1-2.5-3.5,15.41,15.41,0,0,1-1-3,56.3,56.3,0,0,1,0-21,55,55,0,0,1,5.5-14.5c2.78-5.24,5.12-9.47,10-13a18.38,18.38,0,0,1,10-4A17.36,17.36,0,0,1,103.29,30.51Z"/><g class="cls-13"><polygon class="cls-4" points="103.29 30.51 106.7 26.85 106.72 26.87 103.3 30.52 103.29 30.51"/><polygon class="cls-4" points="110.12 23.2 113.53 19.55 113.57 19.59 110.15 23.23 110.12 23.2"/><path class="cls-4" d="M117,15.9l1.32-1.41h0a4.53,4.53,0,0,1,2.33-1.94l0,.07a4.46,4.46,0,0,0-2.29,1.91h0L117,15.94Z"/><path class="cls-4" d="M124.28,15.37a9.88,9.88,0,0,1,.94,4.88h-.11a9.69,9.69,0,0,0-.92-4.83Z"/><path class="cls-4" d="M124.36,25.17c-.49,1.6-.93,3.21-1.47,4.78l-.13,0c.55-1.57,1-3.18,1.48-4.77Z"/><polygon class="cls-4" points="121.18 34.66 119.28 39.28 119.17 39.24 121.06 34.61 121.18 34.66"/><path class="cls-4" d="M117.58,43.68a21,21,0,0,1,1.81,1.72c.58.61,1.09,1.27,1.61,1.92l-.07.06c-.52-.65-1-1.3-1.61-1.91a20.9,20.9,0,0,0-1.81-1.71Z"/><path class="cls-4" d="M123.55,51.62a11.45,11.45,0,0,1,.87,4.9h-.07a11.47,11.47,0,0,0-.88-4.87Z"/><path class="cls-4" d="M123.19,61.36c-.31.77-.61,1.55-.94,2.32l-1,2.27,0,0,1-2.28c.33-.77.62-1.54.94-2.32Z"/><path class="cls-4" d="M118.75,70.3c-.9,1.4-1.81,2.8-2.74,4.18l0,0q1.4-2.07,2.74-4.18Z"/><polygon class="cls-4" points="113.15 78.59 110 82.48 109.95 82.43 113.1 78.55 113.15 78.59"/><path class="cls-4" d="M106.41,86l-2,1.51c-.7.46-1.42.89-2.13,1.33l0-.08c.7-.44,1.42-.86,2.12-1.32l2-1.5Z"/><path class="cls-4" d="M97.68,90.75a31.52,31.52,0,0,1-4.92.89l0-.12a30.17,30.17,0,0,0,4.92-.87Z"/><path class="cls-4" d="M87.76,92a5.88,5.88,0,0,1-2.37-.82,13,13,0,0,0-2.12-1.3l0-.12A12.9,12.9,0,0,1,85.46,91a5.61,5.61,0,0,0,2.31.81Z"/><path class="cls-4" d="M78.33,89.45a22.79,22.79,0,0,1-2.42-.66L73.53,88l0-.13,2.39.76a19.77,19.77,0,0,0,2.4.65Z"/><path class="cls-4" d="M70,84.67a17.32,17.32,0,0,1-.94-2.32,19.2,19.2,0,0,1-.58-2.44l.14,0a20,20,0,0,0,.57,2.43,17.62,17.62,0,0,0,.94,2.3Z"/><polygon class="cls-4" points="67.87 74.94 67.72 69.93 67.87 69.93 68.02 74.92 67.87 74.94"/><path class="cls-4" d="M68,64.93a48.74,48.74,0,0,1,.71-5l.15,0c-.33,1.63-.55,3.28-.72,4.94Z"/><polygon class="cls-4" points="70.03 55.14 71.8 50.46 71.93 50.51 70.17 55.19 70.03 55.14"/><polygon class="cls-4" points="73.99 45.95 76.39 41.56 76.49 41.62 74.1 46.01 73.99 45.95"/><path class="cls-4" d="M79.17,37.4a24.12,24.12,0,0,1,3.45-3.62l0,.06a25,25,0,0,0-3.43,3.62Z"/><path class="cls-4" d="M86.68,30.88A17.6,17.6,0,0,1,91.29,29V29a17.41,17.41,0,0,0-4.58,1.93Z"/><path class="cls-4" d="M96.26,28.5a17,17,0,0,1,4.88,1v0a17.28,17.28,0,0,0-4.87-1Z"/></g><path class="cls-7" d="M94.72,65.67c1.34-2.18,4.24-2.69,5.56-4.94a.5.5,0,0,0-.86-.51c-1.3,2.22-4.2,2.74-5.56,5-.34.55.52,1,.86.5Z"/><path class="cls-7" d="M94.39,65.91c1.39-.15,3-.28,4-1.34a5.93,5.93,0,0,0,1.82-3.93c0-.64-1-.65-1,0a4.94,4.94,0,0,1-1.53,3.22c-.83.84-2.19.93-3.3,1-.64.06-.64,1.06,0,1Z"/><path class="cls-7" d="M95.94,65.11a12.85,12.85,0,0,0,2.87-2.21.5.5,0,0,0-.71-.7,12.34,12.34,0,0,1-2.66,2,.5.5,0,0,0,.5.86Z"/><line class="cls-14" x1="74.79" y1="77.01" x2="76.79" y2="80.01"/><line class="cls-14" x1="81.79" y1="78.01" x2="78.79" y2="80.01"/><line class="cls-15" x1="78.24" y1="81.71" x2="79.35" y2="84.31"/><ellipse class="cls-16" cx="115.29" cy="27.32" rx="12" ry="4.03" transform="translate(33.98 113.51) rotate(-60)"/></g></g></g></g></svg>