<svg xmlns="http://www.w3.org/2000/svg" viewBox="0 0 433.02 260.3"><defs><style>.cls-1{font-size:13.06px;letter-spacing:-0.06em;}.cls-1,.cls-8,.cls-9{fill:#4ac2c9;}.cls-1,.cls-9{font-family:HelveticaNeue-Bold, Helvetica Neue;font-weight:700;}.cls-2{fill:none;}.cls-2,.cls-3,.cls-4,.cls-5,.cls-6,.cls-7,.cls-8{stroke:#4ac2c9;stroke-miterlimit:10;}.cls-3{fill:#5fc9cf;}.cls-3,.cls-4,.cls-5,.cls-6,.cls-7,.cls-8{stroke-width:0.5px;}.cls-4{fill:#8fd9de;}.cls-5{fill:#b1e5e8;}.cls-6{fill:#c0e9ec;}.cls-7{fill:#d9f2f4;}.cls-9{font-size:18px;}</style></defs><title>Asset 7</title><g id="Layer_2" data-name="Layer 2"><g id="Layer_2-2" data-name="Layer 2"><text class="cls-1" transform="translate(0 254.02) scale(0.6 1)">0.000</text><text class="cls-1" transform="translate(55.71 254.02) scale(0.6 1)">0.002</text><text class="cls-1" transform="translate(111.42 254.02) scale(0.6 1)">0.004</text><text class="cls-1" transform="translate(167.13 254.02) scale(0.6 1)">0.006</text><text class="cls-1" transform="translate(222.84 254.02) scale(0.6 1)">0.008</text><text class="cls-1" transform="translate(278.55 254.02) scale(0.6 1)">0.010</text><line class="cls-2" x1="8.82" y1="240.47" x2="287.37" y2="240.47"/><line class="cls-2" x1="8.82" y1="240.47" x2="8.82" y2="234.47"/><line class="cls-2" x1="64.53" y1="240.47" x2="64.53" y2="234.47"/><line class="cls-2" x1="120.24" y1="240.47" x2="120.24" y2="234.47"/><line class="cls-2" x1="175.95" y1="240.47" x2="175.95" y2="234.47"/><line class="cls-2" x1="231.66" y1="240.47" x2="231.66" y2="234.47"/><line class="cls-2" x1="287.37" y1="240.47" x2="287.37" y2="234.47"/><line class="cls-2" x1="8.82" y1="240.47" x2="8.82" y2="0.25"/><line class="cls-2" x1="8.82" y1="120.36" x2="15.78" y2="120.36"/><rect class="cls-3" x="308.52" y="0.25" width="34.82" height="24.02"/><rect class="cls-3" x="8.82" y="186.02" height="28.83"/><rect class="cls-4" x="308.52" y="36.28" width="34.82" height="24.02"/><rect class="cls-4" x="8.82" y="153.99" height="28.83"/><rect class="cls-5" x="308.52" y="72.32" width="34.82" height="24.02"/><rect class="cls-5" x="8.82" y="121.96" height="28.83"/><rect class="cls-6" x="308.52" y="108.35" width="34.82" height="24.02"/><rect class="cls-6" x="8.82" y="89.93" height="28.83"/><rect class="cls-7" x="308.52" y="144.38" width="34.82" height="24.02"/><rect class="cls-7" x="8.82" y="57.9" height="28.83"/><rect class="cls-8" x="308.52" y="180.42" width="34.82" height="24.02"/><rect class="cls-8" x="8.82" y="25.87" height="28.83"/><text class="cls-9" transform="translate(347.69 17.16)">Sass</text><text class="cls-9" transform="translate(347.69 53.19)">Bootstrap</text><text class="cls-9" transform="translate(347.69 89.22)">jQuery</text><text class="cls-9" transform="translate(347.69 125.26)">JS</text><text class="cls-9" transform="translate(347.69 161.29)">CSS</text><text class="cls-9" transform="translate(347.69 197.32)">HTML</text></g></g></svg>