<svg xmlns="http://www.w3.org/2000/svg" viewBox="0 0 470.36 301.33"><defs><style>.cls-1{fill:none;}.cls-1,.cls-3,.cls-4,.cls-5,.cls-6,.cls-7,.cls-8,.cls-9{stroke:#000;stroke-miterlimit:10;}.cls-2{font-size:13.4px;font-family:HelveticaNeue-Light, Helvetica Neue;}.cls-3{fill:#55e8c8;}.cls-3,.cls-4,.cls-5,.cls-6,.cls-7,.cls-8,.cls-9{stroke-width:0.5px;}.cls-4{fill:#202020;}.cls-5{fill:#94970a;}.cls-6{fill:#e44d26;}.cls-7{fill:#97270a;}.cls-8{fill:#563897;}.cls-10{letter-spacing:-0.05em;}.cls-11{letter-spacing:-0.09em;}</style></defs><title>Asset 3</title><g id="Layer_2" data-name="Layer 2"><g id="Layer_5" data-name="Layer 5"><line class="cls-1" x1="16.87" y1="84.39" x2="302.64" y2="84.39"/><line class="cls-1" x1="16.87" y1="84.39" x2="16.87" y2="91.54"/><line class="cls-1" x1="302.64" y1="84.39" x2="302.64" y2="91.54"/><text class="cls-2" transform="translate(0 297.25)">-8</text><text class="cls-2" transform="translate(0 271.27)">-7</text><text class="cls-2" transform="translate(0 245.29)">-6</text><text class="cls-2" transform="translate(0 219.31)">-5</text><text class="cls-2" transform="translate(0 193.33)">-4</text><text class="cls-2" transform="translate(0 167.35)">-3</text><text class="cls-2" transform="translate(0 141.37)">-2</text><text class="cls-2" transform="translate(0 115.39)">-1</text><text class="cls-2" transform="translate(4.96 89.41)">0</text><text class="cls-2" transform="translate(4.96 63.44)">1</text><text class="cls-2" transform="translate(4.96 37.46)">2</text><text class="cls-2" transform="translate(4.96 11.48)">3</text><line class="cls-1" x1="16.87" y1="292.22" x2="16.87" y2="6.46"/><line class="cls-1" x1="16.87" y1="292.22" x2="24.01" y2="292.22"/><line class="cls-1" x1="16.87" y1="266.25" x2="24.01" y2="266.25"/><line class="cls-1" x1="16.87" y1="240.27" x2="24.01" y2="240.27"/><line class="cls-1" x1="16.87" y1="214.29" x2="24.01" y2="214.29"/><line class="cls-1" x1="16.87" y1="188.31" x2="24.01" y2="188.31"/><line class="cls-1" x1="16.87" y1="162.33" x2="24.01" y2="162.33"/><line class="cls-1" x1="16.87" y1="136.35" x2="24.01" y2="136.35"/><line class="cls-1" x1="16.87" y1="110.37" x2="24.01" y2="110.37"/><line class="cls-1" x1="16.87" y1="84.39" x2="24.01" y2="84.39"/><line class="cls-1" x1="16.87" y1="58.41" x2="24.01" y2="58.41"/><line class="cls-1" x1="16.87" y1="32.44" x2="24.01" y2="32.44"/><line class="cls-1" x1="16.87" y1="6.46" x2="24.01" y2="6.46"/><rect class="cls-3" x="332.16" y="6.46" width="35.72" height="28.58"/><rect class="cls-3" x="243.03" y="84.39" width="29.39" height="181.85"/><rect class="cls-4" x="332.16" y="49.32" width="35.72" height="28.58"/><rect class="cls-4" x="210.38" y="84.39" width="29.39" height="129.89"/><rect class="cls-5" x="332.16" y="92.19" width="35.72" height="28.58"/><rect class="cls-5" x="177.72" y="84.39" width="29.39" height="77.94"/><rect class="cls-6" x="332.16" y="135.05" width="35.72" height="28.58"/><rect class="cls-6" x="145.06" y="84.39" width="29.39" height="77.94"/><rect class="cls-7" x="332.16" y="177.92" width="35.72" height="28.58"/><rect class="cls-7" x="112.4" y="84.39" width="29.39" height="77.94"/><rect class="cls-8" x="332.16" y="220.78" width="35.72" height="28.58"/><rect class="cls-8" x="79.74" y="32.44" width="29.39" height="51.96"/><rect class="cls-9" x="332.16" y="263.65" width="35.72" height="28.58"/><rect class="cls-9" x="47.08" y="6.46" width="29.39" height="77.94"/><text class="cls-2" transform="translate(372.35 25.77)">PHP </text><text class="cls-2" transform="translate(372.35 68.63)"><tspan class="cls-10">V</tspan><tspan x="7.21" y="0">anilla CSS </tspan></text><text class="cls-2" transform="translate(372.35 111.5)">jQuery </text><text class="cls-2" transform="translate(372.35 154.36)">HTML5 </text><text class="cls-2" transform="translate(372.35 197.23)"><tspan class="cls-10">V</tspan><tspan x="7.21" y="0">anilla Javascript</tspan></text><text class="cls-2" transform="translate(372.35 240.09)">Angula<tspan class="cls-11" x="39.7" y="0">r</tspan><tspan x="42.69" y="0">.js </tspan></text><text class="cls-2" transform="translate(372.35 282.96)">SQL </text></g></g></svg>