<svg xmlns="http://www.w3.org/2000/svg" viewBox="0 0 404.81 217.48"><defs><style>.cls-1{fill:#9721b5;}.cls-1,.cls-2,.cls-3,.cls-4,.cls-5,.cls-6{stroke:#000;stroke-miterlimit:10;stroke-width:0.5px;}.cls-2{fill:#5fc9cf;}.cls-3{fill:#3fa9f5;}.cls-4{fill:#7ac943;}.cls-5{fill:#ff1d25;}.cls-7{font-size:18px;font-family:HelveticaNeue-Bold, Helvetica Neue;font-weight:700;}</style></defs><title>Asset 1</title><g id="Layer_2" data-name="Layer 2"><g id="Layer_3" data-name="Layer 3"><rect class="cls-1" x="233.43" y="0.25" width="28.79" height="23.24"/><path class="cls-1" d="M101.09,116.45,58.5,25.13a98.74,98.74,0,0,1,42.59-9.44Z"/><rect class="cls-2" x="233.43" y="35.11" width="28.79" height="23.24"/><path class="cls-2" d="M101.09,116.45,22.78,53A94.18,94.18,0,0,1,58.5,25.13Z"/><rect class="cls-3" x="233.43" y="69.97" width="28.79" height="23.24"/><path class="cls-3" d="M101.09,116.45l-99.78-14A97.25,97.25,0,0,1,22.78,53Z"/><rect class="cls-4" x="233.43" y="104.83" width="28.79" height="23.24"/><path class="cls-4" d="M101.09,116.45,43.29,199c-31.86-22.31-47.39-58-42-96.55Z"/><rect class="cls-5" x="233.43" y="139.69" width="28.79" height="23.24"/><path class="cls-5" d="M101.09,116.45l95.82,31.14A100.75,100.75,0,0,1,70,212.27,98.41,98.41,0,0,1,43.29,199Z"/><rect class="cls-6" x="233.43" y="174.55" width="28.79" height="23.24"/><path class="cls-6" d="M101.09,116.45V15.69A100.76,100.76,0,0,1,201.84,116.45a91.87,91.87,0,0,1-4.93,31.14Z"/><text class="cls-7" transform="translate(265.82 15.92)">Other </text><text class="cls-7" transform="translate(265.82 50.78)">Composer</text><text class="cls-7" transform="translate(265.82 85.64)">JS Frameworks </text><text class="cls-7" transform="translate(265.82 120.5)">PHP </text><text class="cls-7" transform="translate(265.82 155.36)">SQL </text><text class="cls-7" transform="translate(265.82 190.22)">JavaScript </text></g></g></svg>