<svg xmlns="http://www.w3.org/2000/svg" xmlns:xlink="http://www.w3.org/1999/xlink" viewBox="0 0 454 346.25"><defs><style>.cls-1{fill:url(#linear-gradient);}.cls-2{fill:#4a4a4a;}.cls-3{fill:#7a7a7a;}</style><linearGradient id="linear-gradient" x1="227" y1="346.25" x2="227" y2="300.23" gradientUnits="userSpaceOnUse"><stop offset="0" stop-color="#605c5d"/><stop offset="1" stop-color="#99979a"/></linearGradient></defs><title>Asset 6</title><g id="Layer_2" data-name="Layer 2"><g id="Layer_2-2" data-name="Layer 2"><path class="cls-1" d="M184.52,300.23h84a37.11,37.11,0,0,0,4,20,36.67,36.67,0,0,0,9.86,11.9,1.43,1.43,0,0,1,.26.23l4.69,4.69a2.69,2.69,0,0,0,.41.33,4.85,4.85,0,0,1-3.22,8.85h-115a6.14,6.14,0,0,1-5-3,3.52,3.52,0,0,1-.3-.86,4.13,4.13,0,0,1,1.72-4.13A44.76,44.76,0,0,0,177,326.73,46.29,46.29,0,0,0,184.52,300.23Z"/><rect class="cls-2" width="454" height="301.47" rx="12" ry="12"/><rect class="cls-3" x="16.96" y="14.41" width="420.08" height="272.62" rx="12" ry="12"/></g></g></svg>