<svg xmlns="http://www.w3.org/2000/svg" xmlns:xlink="http://www.w3.org/1999/xlink" viewBox="0 0 132.48 290.42"><defs><style>.cls-1{fill:#fdcd01;stroke:#fef193;}.cls-1,.cls-2,.cls-5{stroke-miterlimit:10;}.cls-1,.cls-2{stroke-width:2px;}.cls-2{fill:none;stroke:url(#linear-gradient);}.cls-3{fill:url(#linear-gradient-2);}.cls-4{fill:url(#linear-gradient-3);}.cls-5,.cls-6{fill:#d8534e;}.cls-5{stroke:#a8413c;}.cls-7{fill:#e5bdbd;}.cls-8{fill:#d1d8de;}.cls-9{fill:#dce3e9;}.cls-10{fill:#eef2f5;}.cls-11{fill:#d9544f;}.cls-12{font-size:11px;fill:#da534f;font-family:HelveticaNeue-Bold, Helvetica Neue;font-weight:700;}</style><linearGradient id="linear-gradient" x1="5381.11" y1="2635.06" x2="5424.15" y2="2635.06" gradientTransform="matrix(-0.9, -0.43, -0.43, 0.9, 6073.52, 145.69)" gradientUnits="userSpaceOnUse"><stop offset="0.13" stop-color="#ee8a12"/><stop offset="0.75" stop-color="#f6ae40"/></linearGradient><linearGradient id="linear-gradient-2" x1="5074.83" y1="3255.78" x2="5095.04" y2="3255.78" gradientTransform="matrix(-0.85, -0.53, -0.53, 0.85, 6097.63, 197.07)" xlink:href="#linear-gradient"/><linearGradient id="linear-gradient-3" x1="-5232.53" y1="-535.93" x2="-5222.02" y2="-535.93" gradientTransform="matrix(0.98, 0.18, 0.18, -0.98, 5317.08, 654.99)" xlink:href="#linear-gradient"/></defs><title>Asset 21</title><g id="Layer_2" data-name="Layer 2"><g id="Layer_4" data-name="Layer 4"><path class="cls-1" d="M77.72,209a64,64,0,0,1,2.22,17.22,62.2,62.2,0,0,1-2.66,17.62l-3-17.58c-1.26-1.19-2-1.19-2.3-1.09-.82.24-1.15,1.45-1.66,5.51-.34,2.79-.52,4.18-.54,5.14-.07,2.92-.47,8.48-1.81,19.82q-3-8.61-6-17.2c-.18-.52-.63-1.44-1.19-1.46-1.26-.05-2.33,4.52-3,8.45q-1.4-11-2.8-22c-.06-.82-.26-1-.42-1.1-.84-.29-3.12,2.79-3.89,6.26a15,15,0,0,0-.19,4.4,25.77,25.77,0,0,0,1.42,7q-.68-11.55-1.34-23.09,1.11-5.32,2.2-10.65"/><path class="cls-2" d="M79.29,206.21a74.18,74.18,0,0,1,1.84,19.32,75.39,75.39,0,0,1-3.42,19.93q-1.32-9.84-2.65-19.7c-1.31-1.3-2.06-1.28-2.44-1.15-.88.29-1.28,1.67-2,6.26-.46,3.15-.69,4.72-.74,5.8-.17,3.29-.78,9.56-2.58,22.38l-5.88-19.18c-.18-.58-.63-1.6-1.24-1.61-1.35,0-2.64,5.17-3.53,9.62q-1.16-12.33-2.3-24.67c0-.93-.25-1.16-.42-1.22-.89-.31-3.44,3.24-4.37,7.17a17.47,17.47,0,0,0-.35,5,29.75,29.75,0,0,0,1.3,7.79l-.36-26q1.19-6,2.36-12.06"/><path class="cls-3" d="M60.5,290.42c3.4-8.09,3.19-13.8,2.32-17.57-.59-2.56-1.58-4.61-2.34-8.94a48.3,48.3,0,0,1-.66-10.62c8.21,12.4,8.19,18.43,6.31,21.64-1,1.79-3.13,3.48-4.54,7.35A19.78,19.78,0,0,0,60.5,290.42Z"/><path class="cls-4" d="M74,245.09c-.14,4.62,1.06,7.35,2.21,9,.78,1.13,1.67,1.93,2.87,3.89a23.86,23.86,0,0,1,2.36,5c-6.44-4.39-7.59-7.33-7.27-9.26.18-1.08.89-2.31.84-4.48A10.22,10.22,0,0,0,74,245.09Z"/><path class="cls-5" d="M48.55,202.56c.59,1.94,1.17,3.88,1.76,5.83a46.31,46.31,0,0,0,30.41.6l3.61-6.25"/><path class="cls-6" d="M25.07,156.92q3.33,10.61,6.65,21.19a41.54,41.54,0,0,0-12.29,9.1,43,43,0,0,0-10.86,23.9L0,214q3.81-18.92,7.61-37.84a33.46,33.46,0,0,1,17.46-19.27Z"/><circle class="cls-7" cx="2.1" cy="210.28" r="0.5"/><circle class="cls-7" cx="4.71" cy="194.69" r="0.5"/><circle class="cls-7" cx="6.73" cy="184.89" r="0.5"/><circle class="cls-7" cx="10.09" cy="175.58" r="0.5"/><circle class="cls-7" cx="15.62" cy="168.55" r="1.03"/><circle class="cls-7" cx="22.44" cy="164.24" r="1.03"/><path class="cls-6" d="M108.16,157.09l-6.93,21.09a41.43,41.43,0,0,1,12.18,9.26,43.18,43.18,0,0,1,10.54,24l8.53,3-7.11-37.94a33.39,33.39,0,0,0-17.21-19.49Z"/><circle class="cls-7" cx="130.42" cy="210.74" r="0.5"/><circle class="cls-7" cx="128.02" cy="195.11" r="0.5"/><circle class="cls-7" cx="125.23" cy="184.86" r="0.5"/><circle class="cls-7" cx="122" cy="175.5" r="0.5"/><circle class="cls-7" cx="116.56" cy="168.4" r="1.03"/><circle class="cls-7" cx="109.8" cy="164" r="1.03"/><path class="cls-8" d="M40.13,200.68a75,75,0,0,0,51.42,1.22,173.54,173.54,0,0,0,23.37-98.3C111.3,48.39,82,12.17,72.18,1a9.6,9.6,0,0,0-4.9-1A10.68,10.68,0,0,0,61,3C46.08,16.11,35.88,41.32,35.88,41.32c-7,17.17-10.42,25.75-12.46,34.6-.9,3.94-4.79,21.57-3.35,46.89C21.87,154.47,31,181.17,40.13,200.68Z"/><path class="cls-9" d="M46,187.9a56.68,56.68,0,0,0,38.84.93,131.12,131.12,0,0,0,17.66-74.26C99.78,72.86,77.63,45.5,70.23,37.08a7.35,7.35,0,0,0-3.7-.76,8.05,8.05,0,0,0-4.78,2.25C50.52,48.48,42.81,67.52,42.81,67.52c-5.25,13-7.87,19.45-9.41,26.13-.68,3-3.62,16.31-2.53,35.43A161.13,161.13,0,0,0,46,187.9Z"/><path class="cls-10" d="M50.47,178.56a48,48,0,0,0,32.88.79,111,111,0,0,0,14.94-62.87A111.45,111.45,0,0,0,71,50.89a6.13,6.13,0,0,0-3.13-.65,6.87,6.87,0,0,0-4,1.91c-9.51,8.38-16,24.51-16,24.51-4.44,11-6.67,16.46-8,22.12a108.72,108.72,0,0,0-2.14,30A136.45,136.45,0,0,0,50.47,178.56Z"/><path class="cls-11" d="M88.7,23.25A172.22,172.22,0,0,0,72.18,1a9.6,9.6,0,0,0-4.9-1A10.68,10.68,0,0,0,61,3c-7.32,6.45-13.5,15.83-17.9,23.7"/></g><g id="Layer_3" data-name="Layer 3"><text class="cls-12" transform="translate(70.76 177.53) rotate(-89.37)">PLANET OF SUCCESS</text></g></g></svg>