<svg xmlns="http://www.w3.org/2000/svg" viewBox="0 0 266.09 330.21"><defs><style>.cls-1{fill:none;stroke:#7d7e81;stroke-miterlimit:10;stroke-opacity:0.11;stroke-width:7px;}</style></defs><title>Asset 17</title><g id="Layer_2" data-name="Layer 2"><g id="Layer_4" data-name="Layer 4"><path class="cls-1" d="M222.57,244.46,220.44,256q5.25,8.67,10.51,17.34a67.84,67.84,0,0,1,23.37,19.45c7.88,10.46,8.23,17.61,8.26,19.53.05,2.74.15,9.05-4.07,12.39-4.66,3.68-11.69,1.46-14.55.55-14.46-4.59-20.89-20.15-22.34-23.66a49.92,49.92,0,0,1-3.37-12.84q-4.67-9.72-9.31-19.44l-10.69-4a145.87,145.87,0,0,1-24.91,14.84c-10.84,5.06-37.37,17.47-69.23,13.58-41.24-5-66.58-34.34-72.55-41.46C-11.35,201.07,7.46,135.51,8.44,132.28c11.63-38.07,38.8-60,54.56-72.77C88.39,39,117.52,27.16,133.23,20.78c12.27-5,22.82-8.45,30.43-10.74L113.13,44a189.4,189.4,0,0,0-29,25.85C73.33,81.69,57.54,99,49.08,126.11c-3.5,11.21-11.29,36.19-2.11,66.06,2.6,8.47,11.9,34.69,38.24,52.61,7.21,4.91,21.4,14.57,41.22,15.25,18.41.64,33.35-6.75,48.44-14.21a165.08,165.08,0,0,0,21.69-12.88l13.88,12Z"/></g></g></svg>